<svg xmlns="http://www.w3.org/2000/svg" xmlns:xlink="http://www.w3.org/1999/xlink" width="286" height="267" viewBox="0 0 286 267">
    <defs>
        <path id="a" d="M.752.196h5.981v5.98H.752z"/>
    </defs>
    <g fill="none" fill-rule="evenodd">
        <path fill="#FFF" d="M116.465 100.578c1.394-1.29 2.874-1.062 3.642-.806.674-1.763 2.124-3.772 5.238-3.772 5.55 0 5.994 5.548 5.994 5.548C135.245 100.347 136 103.86 136 104h-21c0-2.267 1.465-3.422 1.465-3.422M3.627 81.444c3.452-3.226 7.118-2.653 9.02-2.013C14.313 75.022 17.903 70 25.615 70c13.742 0 14.842 13.871 14.842 13.871C50.13 80.867 52 89.651 52 90H0c0-5.667 3.627-8.556 3.627-8.556M221.512 110.69a5.69 5.69 0 0 1 2.776.72 9.04 9.04 0 0 1 7.784-4.407c3.1 0 5.835 1.543 7.46 3.893.86-2.831 3.515-4.896 6.663-4.896 3.574 0 6.513 2.659 6.91 6.08a5.74 5.74 0 0 1 .878-.074A5.675 5.675 0 0 1 259 115h-43c.588-2.469 2.83-4.31 5.512-4.31"/>
        <g transform="translate(191)">
            <mask id="b" fill="#fff">
                <use xlink:href="#a"/>
            </mask>
            <path fill="#EBF5FF" d="M6.733 3.186a2.99 2.99 0 1 1-5.98 0 2.99 2.99 0 0 1 5.98 0" mask="url(#b)"/>
        </g>
        <path fill="#F9FAFB" d="M129 66a1.999 1.999 0 1 1-4 0 2 2 0 0 1 4 0"/>
        <path fill="#EBF5FF" d="M207.783 54.138l-1.141-.611a.412.412 0 0 1-.167-.169l-.613-1.142a.411.411 0 0 0-.724 0l-.612 1.142a.417.417 0 0 1-.167.169l-1.142.611a.41.41 0 0 0 0 .724l1.142.612c.07.039.129.097.167.168l.612 1.142c.155.288.57.288.724 0l.613-1.142a.41.41 0 0 1 .167-.168l1.141-.612a.41.41 0 0 0 0-.724"/>
        <path fill="#C1DDF7" d="M138.697 14.993l-1.6-.857a.578.578 0 0 1-.233-.235l-.857-1.598a.575.575 0 0 0-1.014 0l-.856 1.598a.577.577 0 0 1-.236.235l-1.598.857a.575.575 0 0 0 0 1.014l1.598.857c.1.053.182.135.236.235l.856 1.598a.575.575 0 0 0 1.014 0l.857-1.598a.578.578 0 0 1 .234-.235l1.599-.857a.575.575 0 0 0 0-1.014M243.654 45.421l-1.827-.98a.661.661 0 0 1-.269-.268l-.98-1.827a.657.657 0 0 0-1.157 0l-.98 1.827a.656.656 0 0 1-.268.269l-1.826.98a.656.656 0 0 0 0 1.157l1.826.98a.656.656 0 0 1 .268.268l.98 1.826a.656.656 0 0 0 1.158 0l.98-1.826a.661.661 0 0 1 .268-.268l1.827-.98a.657.657 0 0 0 0-1.158"/>
        <path fill="#F9FAFB" d="M99.697 37.994l-1.598-.857a.57.57 0 0 1-.235-.236l-.858-1.598a.574.574 0 0 0-1.013 0l-.857 1.598a.573.573 0 0 1-.234.236l-1.6.857a.575.575 0 0 0 0 1.012l1.6.858c.1.053.18.134.234.235l.857 1.598a.574.574 0 0 0 1.013 0l.858-1.598a.568.568 0 0 1 .235-.235l1.598-.858a.574.574 0 0 0 0-1.012M211.783 27.138l-1.14-.612a.41.41 0 0 1-.168-.168l-.613-1.141a.41.41 0 0 0-.723 0l-.613 1.14a.415.415 0 0 1-.167.169l-1.142.612a.41.41 0 0 0 0 .723l1.142.613a.413.413 0 0 1 .167.167l.613 1.142a.41.41 0 0 0 .723 0l.613-1.142a.408.408 0 0 1 .167-.167l1.141-.613a.41.41 0 0 0 0-.723"/>
        <path fill="#D5EAFF" d="M191.633 186.92c1.195.294 2.367.658 3.511 1.088a18.177 18.177 0 0 1 12.254-4.713c8.694 0 15.957 6.046 17.707 14.109 6.283-4.345 13.934-6.894 22.188-6.894 21.378 0 38.707 17.1 38.707 38.192s-17.329 38.191-38.707 38.191c-19.42 0-35.498-14.111-38.28-32.508-4.32 5.805-10.737 10.125-18.441 11.731a31.026 31.026 0 0 1-23.34-4.38 27.509 27.509 0 0 1-15.926 5.037c-10.089 0-18.903-5.384-23.654-13.398a27.525 27.525 0 0 1-13.14 3.936 27.699 27.699 0 0 1-8.86-1.066c-2.937 19.565-21.33 33.159-41.213 30.4-19.975-2.774-33.888-20.997-31.078-40.705 2.81-19.708 21.28-33.436 41.253-30.663a36.731 36.731 0 0 1 13.476 4.64c3.97-9.382 13.167-16.147 24.142-16.597a27.522 27.522 0 0 1 17.558 5.37 20.255 20.255 0 0 1 13.03-7.29 9.589 9.589 0 0 1-.962-4.195c0-5.376 4.418-9.733 9.866-9.733 4.003 0 7.449 2.352 8.995 5.731V116h17.375v46.622c3.14.566 5.521 3.28 5.521 6.542a6.554 6.554 0 0 1-.993 3.476c5.304 2.018 9.066 7.095 9.066 13.04 0 .418-.019.832-.055 1.24z"/>
        <path fill="#EC783B" d="M175.971 120.273c0-3.464-2.898-6.273-6.47-6.273-3.575 0-6.472 2.809-6.472 6.273 0 0-.836 14.832 6.471 22.727 7.306-7.895 6.471-22.727 6.471-22.727"/>
        <path fill="#33BCDD" d="M147.301 86s-23.4 11.648-14.128 46c0 0 4.952-17.268 20.827-21.74L147.301 86zM191.699 86s23.4 11.648 14.128 46c0 0-4.952-17.268-20.827-21.74L191.699 86z"/>
        <path fill="#214A81" d="M177.71 118H161.29c-.648 0-1.21-.465-1.353-1.12l-.901-4.123c-.197-.9.463-1.757 1.353-1.757h18.224c.89 0 1.55.857 1.353 1.757l-.902 4.123c-.143.655-.705 1.12-1.352 1.12"/>
        <path fill="#F9FAFB" d="M146.528 76.937s2.47 22.687 10.1 37.063c0 0 12.121-5.84 26.486 0 0 0 8.753-12.13 10.55-38.86 1.034-15.402-.202-32.988-5.3-48.14h-35.601c-4.738 12.343-8.113 28.918-6.235 49.937"/>
        <path fill="#B93393" d="M167.645 2.461C164.023 6.51 157.815 14.621 153 27h36c-3.298-9.678-8.192-18.363-15.12-24.838-1.784-1.667-4.61-1.518-6.235.3"/>
        <path fill="#33BCDD" d="M168.737 76s-10.658 25.126 0 55c0 0 11.842-24.928 0-55"/>
        <path fill="#B93393" d="M184 53c0 7.733-6.268 14-14 14s-14-6.267-14-14c0-7.732 6.268-14 14-14s14 6.268 14 14"/>
        <path fill="#F9FAFB" d="M179 53.5a9.5 9.5 0 1 1-19 0 9.5 9.5 0 0 1 19 0"/>
    </g>
</svg>
