<svg xmlns="http://www.w3.org/2000/svg" width="509" height="268" viewBox="0 0 509 268">
    <g fill="none" fill-rule="evenodd">
        <path fill="#000105" d="M337.037 118.904c-4.726-1.864-8.138 1.243-12.164 17.842-4.025 16.599-3.062 35.15-3.062 35.15h4.375c2.625-25.475 15.75-49.885 15.75-49.885s-.174-1.243-4.9-3.107M323.154 177.043c-4.367-1.07-7.844 7.852-7.13 12.313.713 4.46 7.576 5.442 9.804-1.785 2.229-7.226.146-9.836-2.674-10.528"/>
        <g fill="#2A3842">
            <path d="M263.348 165.64c3.827-1.7 4.23 1.753 1.235 16.476-7.335-1.573-4.874-14.86-1.235-16.476zm47.419-13.956c-8.934-4.068-13.647 3.811-15.73 14.767l-.003.012c-2.655 10.602-9.258 24.777-12.025 22.821-3.464-2.449 6.228-19.288 6.406-32.355.081-5.972-6.05-5.245-11.21-3.111 2.2 1.726.6 15.622-2.037 20.469-1.786 3.282-4.073 6.071-6.812 7.302 2.601-10.141 3.395-20.89-3.873-22.171-9.074-1.6-14.768 19.2-6.94 25.253 1.616 1.248 3.224 1.948 4.777 2.266-3.77 9.624-16.157 19.899-17.943 8.214-1.458-9.53 4.27-22.742 10.498-28.889-7.74-5.422-14.324 2.311-17.526 10.49-3.203 8.179-4.27 24.888 6.76 27.91 10.295 2.82 18.96-7.517 22.675-17.79 2.843-.628 5.232-2.222 6.739-3.457-1.13 9.274.818 17.04 7.508 13.514 6.146-3.239 10.136-13.183 11.703-17.788-.04 1.223-.059 2.445-.057 3.656.021 15.513 13.71 12.71 15.31 7.376-2.668 0-6.76-1.866-5.604-16.889 1.156-15.022 7.384-21.6 7.384-21.6zM222.577 183.748c-4.008 11.773-9.998 22.853-12.368 22.159-2.427-.711 2.517-15.378 4.83-25.245 2.313-9.866 5.16-25.422-1.602-27.644-6.76-2.222-10.675 3.733-10.675 3.733 6.672 1.956 4.893 10.667 2.758 22.756s-8.283 29.352.445 32.177c5.535 1.793 10.42-6.446 13.568-13.752-7.972 34.351-17.387 50.113-31.63 61.664-15.123 12.266-33.094-3.556-24.198-23.467 8.897-19.911 22.42-20.089 22.42-20.089s-3.27-9.077-15.658-3.2c-17.616 8.356-26.868 46.4 2.491 54.4 25.068 6.83 51.728-33.255 60.764-84.622 1.334-7.587 4.181-13.422 4.181-13.422-11.366-1.69-12.391.455-15.326 14.552M149.426 102.973s8.14-18 31.36-24.4c23.221-6.4 50.006-4.875 68.46-13.733 13.612-6.533 6.406-20.8 6.406-20.8s-3.87 9.733-32.295 17.467c-28.425 7.733-63.222 15.443-71.93 21.6-8.673 6.133-10.275 14.533-2 19.866"/>
            <path d="M172.246 167.64c15.614-14.533 22.02-46.933 26.823-66.533 4.805-19.6 9.475-22.934 9.475-22.934-12.944-2.266-16.948 5.6-19.75 16.534-2.803 10.933-5.739 33.333-13.479 55.2-7.74 21.866-21.218 21.866-22.553 11.6-1.334-10.267 7.474-21.467 14.947-23.6-4.137-8-19.617-4.667-22.286 11.454-2.928 17.685 13.962 30.25 26.823 18.279M252.865 127.773c-4.862.553-2.417-18.266 3.454-25.733 3.837-4.878 6.191-2.358 7.363-.025-1.824 4.225-2.829 11.328-3.262 14.072-2.16 5.542-5.02 11.398-7.555 11.686zm119.823-6.533c-5.071 6.267-32.028-13.733-34.43-21.867 7.473-4.133 22.82-25.466 13.612-28.933-9.208-3.467-18.817 13.333-24.555 27.733 6.806-35.333 16.681-44.666 16.681-44.666-4.804-2.667-8.941-4.4-15.347 7.2-6.405 11.6-9.208 31.6-10.436 40.575-3.376 8.513-7.816 18.125-10.382 17.3-4.537-1.456 9.075-32.409 3.87-36.409-5.204-4-14.412 3.867-20.952 20.8 1.335-8.933 5.338-17.6 5.338-17.6s-7.873-3.333-10.675 2.934c-2.313 5.172-3.99 15.065-4.805 21.859-7.62 19.273-14.623 20.293-12.677 7.207 2.001-13.466 10.275-25.333 10.275-25.333-6.08-3.331-9.78-1.831-12.799 5.172-4.606-11.725-17.62-1.733-22.565 10.428-2.402 5.907-3.436 12.067-3.11 17.135-5.657 12.91-10.927 13.08-9.034 2.865 2.002-10.8 7.874-26.8.934-29.333-6.94-2.534-14.546 12.516-19.884 25.066 3.603-23.333 14.546-45.59 14.546-45.59s-9.608-3.076-14.012 6.79c-4.404 9.867-9.875 32.134-11.502 43.734-1.626 11.6-.775 16.266 7.765 16 2.402-12.134 9.475-31.6 16.2-36.667-2.756 9.442-7.392 33.067 1.015 34.4 6.433 1.02 12.471-7.79 14.954-11.987 1.076 3.154 2.984 5.324 5.731 5.854 5.553 1.07 10.889-7.588 13.368-12.345.131 5.213 1.869 8.303 5.849 8.745 5.47.607 11.628-9.15 14.28-13.891-.046 4.643 1.067 8.652 7.072 8.957.4-6.8 4.27-21.866 9.341-29.733 5.071-7.867 9.075-12 5.205-.533-3.87 11.466-5.338 26.266 2.669 26.8 5.97.398 11.494-8.321 13.918-12.783.74 3.871 2.69 6.415 6.366 6.65 7.34-30.4 21.405-46.983 21.219-37.734-.186 9.249-10.276 18.8-14.813 21.6 5.071 10.267 18.016 24.933 26.957 29.067 8.94 4.133 15.08-2.534 14.813-9.467z"/>
        </g>
        <g fill-rule="nonzero" transform="rotate(-60 67.446 67.807)">
            <circle cx="75.561" cy="44.469" r="3.977" fill="#6EDCF9"/>
            <circle cx="4.7" cy="90.023" r="3.254" fill="#8DD83D"/>
            <path fill="#FFA92C" d="M64.698 9.805L56.014 8.55 52.13.714a1.287 1.287 0 0 0-2.307 0L45.94 8.549l-8.685 1.256c-1.052.152-1.475 1.445-.713 2.185l6.284 6.098-1.483 8.612c-.18 1.044.924 1.844 1.866 1.35l7.768-4.065c8.461 4.428 7.93 4.213 8.366 4.213.266 0 .532-.083.756-.245.396-.287.595-.772.512-1.252l-1.484-8.612 6.284-6.1c.762-.738.341-2.031-.713-2.184z"/>
            <path fill="#FF8828" d="M50.077 20.348l-6.175-6.1c-.748-.738-.335-2.031.7-2.184l8.534-1.256 1.818-3.73-3.1-6.364A1.263 1.263 0 0 0 50.72 0c-.48 0-.92.277-1.133.714L45.77 8.549l-8.534 1.256c-1.034.152-1.45 1.445-.7 2.185l6.175 6.098-1.458 8.612c-.177 1.044.909 1.844 1.834 1.35l6.249-3.328.74-4.374z"/>
            <path fill="#FFA92C" d="M113.207 50.727l-5.166-5.194 1.294-7.257c.156-.88-.753-1.562-1.538-1.153l-6.471 3.373-6.412-3.489c-.777-.422-1.699.243-1.557 1.126l1.167 7.279-5.257 5.1c-.637.618-.297 1.713.576 1.849l7.192 1.125 3.163 6.641a1.06 1.06 0 0 0 1.913.017l3.279-6.583 7.21-.996c.874-.12 1.234-1.208.607-1.838z"/>
            <path fill="#FF8828" d="M98.22 50.19l-1.156-7.071c-.14-.857.773-1.504 1.545-1.093l6.358 3.389 3.19-1.629 1.01-5.55c.155-.854-.747-1.518-1.525-1.12l-6.418 3.277-6.359-3.39c-.77-.41-1.685.236-1.545 1.094l1.158 7.07-5.214 4.955c-.631.6-.294 1.664.571 1.796l5.656.867 2.73-2.595z"/>
            <path fill="#E8C018" d="M39.046 128.707S34.84 93.466 22.738 73.673c-1.633-2.493-4.213-3.76-7.557-1.976l-.003.002c-3.595 1.92-1.623 5.767-1.623 5.767 5.549 6.94 17.881 24.462 25.491 51.241z"/>
            <path fill="#F2D422" d="M106.97 103.326c.427-.259.839-.505 1.236-.738 1.518-1.086 3.646-3.339 1.544-6.567-2.464-3.786-6.735-1.176-7.409-.73-22.121 15.824-34.372 44.263-34.372 44.263 13.917-19.176 29.747-30.62 39-36.228z"/>
            <path fill="#E8C018" d="M7.323 104.883c-.754-.55-4.644-3.151-6.69.192-1.264 2.065-.57 3.899 1.511 5.166l.003.002c7.246 4.423 19.958 13.66 31.114 29.31 0 0-9.23-21.815-25.938-34.67z"/>
            <path fill="#EA473B" d="M27.431 53.446c.166-.49.04-.45-3.188-3.629.817-4.488.93-4.482.516-4.787-.418-.307-.418-.177-4.463 1.889-4.047-2.157-4.009-2.264-4.429-1.967-.423.3-.298.34.43 4.796l-3.088 2.935a.621.621 0 0 0 .338 1.064l4.227.648c1.996 4.105 1.9 4.169 2.418 4.174.52.004.442-.1 2.492-4.131l4.237-.573a.627.627 0 0 0 .51-.42z"/>
            <path fill="#D63322" d="M22.462 53.231c-4.776-.695-4.812-.586-4.975-1.075-.164-.492-.034-.45 3.422-3.572l-.293-1.702c-4.171-2.114-4.144-2.228-4.586-1.93-.445.3-.314.34.453 4.795-3.49 3.153-3.585 3.084-3.422 3.572.164.492.245.387 4.975 1.076 2.036 3.98 1.944 3.903 2.156 4.052.33.23.798.124.982-.22l1.964-3.673-.676-1.323z"/>
            <path fill="#F2D422" d="M55.678 38.875l-.003-.002c-4.858-2.591-5.806-2.731-10.928.001h-.001c-4.406 2.352-4.33 5.668-4.223 6.551 2.544 15.969 7.338 48.424 9.688 79.667 2.342-31.139 7.113-63.48 9.663-79.505.288-1.826.607-4.149-4.196-6.712z"/>
            <path fill="#E8C018" d="M45.88 45.425c-.107-.883-.182-4.2 4.168-6.55l.001-.001c1.072-.58 1.958-1.028 2.736-1.353-2.713-1.161-4.152-.777-8.092 1.353h-.001c-4.35 2.351-4.275 5.668-4.169 6.55 2.51 15.97 7.244 48.425 9.564 79.668.71-9.57 1.648-19.254 2.678-28.543-2.333-21.036-5.144-40.047-6.885-51.124z"/>
            <path fill="#F2D422" d="M91.723 68.878c1.137-1.53.842-2.781.639-3.286l-1.286-2.683c-.608-1.268-1.65-1.622-2.111-1.718l-.232-.036-2.405-.374c-2.273-.354-3.517 1.614-3.648 1.833-14.372 25.385-21.942 66.817-21.942 66.817C70.591 99.72 83.781 79.387 91.72 68.88l.003-.003z"/>
        </g>
        <g fill-rule="nonzero" transform="scale(-1 1) rotate(-60 -200.72 500.284)">
            <circle cx="75.561" cy="44.469" r="3.977" fill="#6EDCF9"/>
            <circle cx="4.7" cy="90.023" r="3.254" fill="#8DD83D"/>
            <path fill="#FFA92C" d="M64.698 9.805L56.014 8.55 52.13.714a1.287 1.287 0 0 0-2.307 0L45.94 8.549l-8.685 1.256c-1.052.152-1.475 1.445-.713 2.185l6.284 6.098-1.483 8.612c-.18 1.044.924 1.844 1.866 1.35l7.768-4.065c8.461 4.428 7.93 4.213 8.366 4.213.266 0 .532-.083.756-.245.396-.287.595-.772.512-1.252l-1.484-8.612 6.284-6.1c.762-.738.341-2.031-.713-2.184z"/>
            <path fill="#FF8828" d="M50.077 20.348l-6.175-6.1c-.748-.738-.335-2.031.7-2.184l8.534-1.256 1.818-3.73-3.1-6.364A1.263 1.263 0 0 0 50.72 0c-.48 0-.92.277-1.133.714L45.77 8.549l-8.534 1.256c-1.034.152-1.45 1.445-.7 2.185l6.175 6.098-1.458 8.612c-.177 1.044.909 1.844 1.834 1.35l6.249-3.328.74-4.374z"/>
            <path fill="#FFA92C" d="M113.207 50.727l-5.166-5.194 1.294-7.257c.156-.88-.753-1.562-1.538-1.153l-6.471 3.373-6.412-3.489c-.777-.422-1.699.243-1.557 1.126l1.167 7.279-5.257 5.1c-.637.618-.297 1.713.576 1.849l7.192 1.125 3.163 6.641a1.06 1.06 0 0 0 1.913.017l3.279-6.583 7.21-.996c.874-.12 1.234-1.208.607-1.838z"/>
            <path fill="#FF8828" d="M98.22 50.19l-1.156-7.071c-.14-.857.773-1.504 1.545-1.093l6.358 3.389 3.19-1.629 1.01-5.55c.155-.854-.747-1.518-1.525-1.12l-6.418 3.277-6.359-3.39c-.77-.41-1.685.236-1.545 1.094l1.158 7.07-5.214 4.955c-.631.6-.294 1.664.571 1.796l5.656.867 2.73-2.595z"/>
            <path fill="#E8C018" d="M39.046 128.707S34.84 93.466 22.738 73.673c-1.633-2.493-4.213-3.76-7.557-1.976l-.003.002c-3.595 1.92-1.623 5.767-1.623 5.767 5.549 6.94 17.881 24.462 25.491 51.241z"/>
            <path fill="#F2D422" d="M106.97 103.326c.427-.259.839-.505 1.236-.738 1.518-1.086 3.646-3.339 1.544-6.567-2.464-3.786-6.735-1.176-7.409-.73-22.121 15.824-34.372 44.263-34.372 44.263 13.917-19.176 29.747-30.62 39-36.228z"/>
            <path fill="#E8C018" d="M7.323 104.883c-.754-.55-4.644-3.151-6.69.192-1.264 2.065-.57 3.899 1.511 5.166l.003.002c7.246 4.423 19.958 13.66 31.114 29.31 0 0-9.23-21.815-25.938-34.67z"/>
            <path fill="#EA473B" d="M27.431 53.446c.166-.49.04-.45-3.188-3.629.817-4.488.93-4.482.516-4.787-.418-.307-.418-.177-4.463 1.889-4.047-2.157-4.009-2.264-4.429-1.967-.423.3-.298.34.43 4.796l-3.088 2.935a.621.621 0 0 0 .338 1.064l4.227.648c1.996 4.105 1.9 4.169 2.418 4.174.52.004.442-.1 2.492-4.131l4.237-.573a.627.627 0 0 0 .51-.42z"/>
            <path fill="#D63322" d="M22.462 53.231c-4.776-.695-4.812-.586-4.975-1.075-.164-.492-.034-.45 3.422-3.572l-.293-1.702c-4.171-2.114-4.144-2.228-4.586-1.93-.445.3-.314.34.453 4.795-3.49 3.153-3.585 3.084-3.422 3.572.164.492.245.387 4.975 1.076 2.036 3.98 1.944 3.903 2.156 4.052.33.23.798.124.982-.22l1.964-3.673-.676-1.323z"/>
            <path fill="#F2D422" d="M55.678 38.875l-.003-.002c-4.858-2.591-5.806-2.731-10.928.001h-.001c-4.406 2.352-4.33 5.668-4.223 6.551 2.544 15.969 7.338 48.424 9.688 79.667 2.342-31.139 7.113-63.48 9.663-79.505.288-1.826.607-4.149-4.196-6.712z"/>
            <path fill="#E8C018" d="M45.88 45.425c-.107-.883-.182-4.2 4.168-6.55l.001-.001c1.072-.58 1.958-1.028 2.736-1.353-2.713-1.161-4.152-.777-8.092 1.353h-.001c-4.35 2.351-4.275 5.668-4.169 6.55 2.51 15.97 7.244 48.425 9.564 79.668.71-9.57 1.648-19.254 2.678-28.543-2.333-21.036-5.144-40.047-6.885-51.124z"/>
            <path fill="#F2D422" d="M91.723 68.878c1.137-1.53.842-2.781.639-3.286l-1.286-2.683c-.608-1.268-1.65-1.622-2.111-1.718l-.232-.036-2.405-.374c-2.273-.354-3.517 1.614-3.648 1.833-14.372 25.385-21.942 66.817-21.942 66.817C70.591 99.72 83.781 79.387 91.72 68.88l.003-.003z"/>
        </g>
    </g>
</svg>
