<?xml version="1.0" standalone="no"?>
<!DOCTYPE svg PUBLIC "-//W3C//DTD SVG 20010904//EN"
 "http://www.w3.org/TR/2001/REC-SVG-20010904/DTD/svg10.dtd">
<svg version="1.0" xmlns="http://www.w3.org/2000/svg"
 width="1233.000000pt" height="1233.000000pt" viewBox="0 0 1233.000000 1233.000000"
 preserveAspectRatio="xMidYMid meet">
<metadata>
Created by potrace 1.11, written by Peter Selinger 2001-2013
</metadata>
<g transform="translate(0.000000,1233.000000) scale(0.100000,-0.100000)"
fill="#000000" stroke="none">
<path d="M5949 10806 c-2 -2 -49 -6 -104 -10 -55 -3 -111 -8 -125 -10 -14 -3
-65 -10 -115 -16 -49 -7 -99 -14 -110 -16 -11 -3 -36 -7 -55 -10 -242 -40
-575 -141 -839 -254 -118 -50 -344 -161 -400 -195 -9 -6 -47 -28 -84 -50 -38
-22 -76 -44 -85 -50 -80 -48 -247 -167 -382 -274 -189 -150 -468 -429 -607
-606 -109 -139 -145 -189 -210 -285 -147 -221 -304 -514 -382 -715 -18 -44
-36 -89 -41 -100 -9 -20 -68 -187 -75 -215 -36 -133 -45 -162 -49 -169 -3 -4
-8 -21 -10 -37 -9 -48 -13 -66 -29 -129 -32 -126 -70 -365 -84 -535 -15 -187
-9 -631 12 -780 3 -19 7 -55 10 -80 3 -25 7 -56 10 -70 40 -229 40 -228 80
-383 170 -655 524 -1242 1031 -1707 66 -61 184 -162 214 -183 29 -20 37 8
-120 -407 -178 -469 -234 -618 -274 -725 -21 -55 -51 -136 -68 -180 -56 -145
-76 -200 -83 -222 -13 -45 -14 -130 -3 -183 6 -30 12 -57 13 -60 0 -3 9 -21
19 -40 48 -90 121 -156 213 -190 73 -27 319 -93 433 -116 14 -3 50 -11 80 -19
60 -15 381 -80 444 -89 21 -4 48 -8 60 -11 12 -2 39 -7 61 -10 22 -4 83 -13
135 -21 121 -19 324 -46 440 -59 30 -3 71 -8 90 -10 19 -2 64 -7 100 -10 36
-3 79 -8 95 -10 17 -2 75 -6 130 -10 55 -4 114 -8 131 -10 173 -20 1093 -27
1404 -11 265 14 420 24 480 31 19 3 67 7 105 11 39 3 84 8 100 10 17 1 64 6
105 9 41 4 77 8 80 10 3 2 34 6 69 10 34 4 70 8 79 10 9 1 42 6 72 10 30 4 64
9 75 11 11 3 34 6 50 8 198 28 581 108 750 157 166 47 304 93 363 120 111 50
196 157 221 279 17 86 7 156 -43 286 -47 125 -53 143 -350 913 -102 265 -186
488 -186 495 0 6 17 23 38 37 122 86 406 363 527 514 22 28 43 52 46 55 39 35
214 292 297 435 231 402 397 894 447 1330 4 33 9 69 11 80 19 99 26 603 11
770 -37 409 -124 778 -274 1155 -50 128 -173 385 -223 470 -18 30 -41 69 -50
85 -239 411 -556 772 -985 1123 -11 9 -67 50 -125 92 -232 168 -463 300 -735
422 -186 83 -508 192 -665 224 -13 3 -62 14 -109 25 -90 21 -286 53 -386 64
-33 3 -78 8 -100 11 -50 6 -561 15 -566 10z m561 -320 c19 -3 58 -8 85 -11 28
-3 64 -7 80 -10 17 -3 46 -7 65 -9 115 -16 325 -63 440 -98 127 -38 285 -91
315 -103 273 -117 367 -163 515 -249 184 -107 397 -257 556 -391 112 -94 380
-370 480 -495 341 -423 585 -912 714 -1429 28 -110 33 -137 45 -206 3 -16 10
-52 15 -80 5 -27 12 -75 16 -105 4 -30 8 -66 10 -80 14 -106 19 -230 18 -445
0 -228 -4 -316 -19 -419 -3 -20 -7 -53 -10 -73 -8 -53 -14 -89 -26 -153 -6
-30 -13 -68 -16 -85 -9 -55 -53 -219 -84 -315 -208 -645 -598 -1188 -1164
-1617 -64 -49 -99 -67 -175 -91 -95 -30 -168 -51 -204 -58 -10 -2 -33 -8 -50
-13 -115 -36 -571 -117 -761 -136 -27 -3 -66 -7 -85 -10 -65 -9 -211 -22 -325
-30 -188 -12 -242 -15 -389 -20 -216 -7 -868 -8 -991 -1 -198 11 -301 17 -330
20 -16 2 -66 6 -110 10 -79 7 -226 23 -275 31 -14 2 -47 6 -73 10 -96 12 -325
54 -437 80 -63 15 -126 29 -139 31 -13 3 -32 9 -43 15 -10 5 -18 8 -18 5 0 -2
-54 13 -120 34 -109 34 -130 45 -218 111 -697 521 -1131 1213 -1287 2054 -13
70 -37 251 -43 328 -14 178 -5 718 13 747 1 3 6 34 10 70 4 36 11 84 16 108 5
23 12 59 15 80 3 20 7 45 10 54 3 10 7 30 10 45 3 16 7 36 10 45 3 10 7 30 10
45 18 101 138 452 207 608 424 949 1207 1671 2187 2013 219 76 500 144 699
167 30 4 63 8 74 11 11 2 61 6 111 10 50 3 93 8 95 10 6 5 529 -4 571 -10z
m-2225 -6801 c31 -8 75 -17 98 -20 23 -4 44 -8 47 -10 5 -3 123 -25 225 -41
22 -3 47 -8 55 -9 8 -2 47 -6 86 -10 l72 -7 -20 -57 c-11 -31 -22 -63 -24 -71
-2 -8 -23 -71 -48 -140 -24 -69 -72 -206 -106 -305 -33 -99 -72 -209 -85 -245
-20 -57 -190 -547 -272 -787 -31 -92 -33 -93 -118 -73 -22 5 -55 12 -74 15
-19 3 -37 7 -40 9 -3 2 -24 7 -46 10 -22 4 -80 16 -128 27 -49 12 -94 22 -100
23 -21 5 -71 17 -124 32 l-51 14 50 143 c27 78 60 174 73 212 13 39 51 149 85
245 33 96 78 227 100 290 21 63 66 194 100 290 34 96 85 244 113 327 29 84 57
153 64 153 7 0 37 -7 68 -15z"/>
<path d="M5959 10156 c-2 -2 -40 -7 -84 -10 -44 -3 -96 -8 -115 -11 -19 -3
-55 -7 -80 -10 -25 -3 -52 -8 -60 -10 -8 -3 -31 -7 -50 -9 -84 -11 -315 -70
-464 -120 -823 -275 -1509 -866 -1904 -1641 -44 -86 -112 -233 -112 -242 0 -3
-6 -19 -14 -36 -78 -172 -180 -557 -202 -762 -3 -27 -7 -60 -9 -71 -26 -123
-26 -676 0 -799 2 -11 7 -40 10 -65 5 -46 7 -55 26 -150 88 -443 308 -929 593
-1315 95 -128 161 -205 300 -352 l80 -83 823 0 c453 0 823 2 823 4 0 2 11 57
24 122 13 66 26 133 29 149 3 17 17 86 31 154 14 68 26 128 26 132 0 5 112 9
249 9 l248 0 66 50 c73 55 82 82 35 106 -36 19 -46 40 -43 90 l2 41 -56 0
c-67 0 -129 28 -164 75 -47 65 -45 71 33 100 25 9 38 17 30 17 -28 2 -95 43
-130 81 -19 21 -53 47 -75 59 -53 30 -76 63 -77 111 0 46 34 103 89 147 18 15
33 34 31 43 -2 21 12 80 27 110 11 22 10 29 -11 60 -13 19 -24 49 -24 66 0 38
41 117 82 160 l29 31 -29 24 c-58 47 -80 131 -52 201 12 30 57 105 70 118 19
19 43 52 33 46 -6 -3 -36 -9 -66 -12 -65 -7 -111 12 -121 49 -4 17 -15 26 -35
30 -34 7 -61 32 -61 56 0 14 -10 20 -42 24 -52 7 -90 35 -102 75 -5 17 -17 34
-27 37 -35 11 -42 94 -14 167 5 14 0 16 -37 16 -85 1 -130 38 -132 111 l-1 37
-50 1 c-56 0 -98 18 -132 55 -27 28 -64 109 -70 152 -7 51 -11 56 -49 56 -102
0 -215 80 -247 175 -9 27 -17 56 -17 66 0 13 -15 22 -53 33 -82 24 -125 80
-131 172 -2 22 -14 58 -29 80 -39 60 -38 126 4 139 18 6 18 9 -10 48 -28 38
-48 99 -46 137 1 31 17 80 26 80 5 0 32 -18 61 -40 29 -22 65 -46 81 -53 15
-6 27 -15 27 -19 0 -5 6 -8 13 -8 7 0 31 -13 53 -30 21 -16 42 -30 47 -30 21
0 339 -209 467 -305 127 -97 274 -239 346 -338 24 -32 44 -53 45 -46 7 92 13
378 8 381 -2 2 -24 13 -49 26 -58 29 -91 78 -95 139 -5 82 46 148 137 179 109
37 200 12 254 -69 25 -36 31 -54 28 -83 -4 -47 -53 -118 -111 -164 l-44 -35 5
-75 c4 -41 8 -88 10 -105 2 -16 7 -59 11 -95 10 -102 16 -140 25 -166 19 -50
138 -146 258 -209 63 -33 84 -24 78 33 -3 21 -5 44 -5 52 -1 8 -21 28 -46 44
-54 34 -75 61 -75 99 0 44 23 88 76 145 82 87 176 94 256 19 101 -95 100 -167
-7 -281 -44 -47 -51 -81 -30 -145 6 -20 33 -31 76 -31 38 0 69 36 129 152 68
133 129 218 177 249 51 34 62 37 136 44 34 3 76 8 92 10 17 2 53 7 80 11 73 9
264 59 336 89 72 29 89 23 89 -32 0 -40 -20 -88 -53 -123 -12 -14 -21 -33 -19
-43 10 -49 -44 -120 -99 -132 -27 -6 -43 -20 -44 -38 0 -19 -59 -77 -90 -88
-22 -8 -35 -20 -35 -31 0 -57 -52 -96 -144 -105 -49 -5 -54 -8 -65 -38 -15
-42 -73 -104 -141 -149 l-56 -36 1 -100 c1 -55 5 -103 9 -107 4 -5 61 -9 127
-10 108 -2 125 1 172 23 94 43 152 25 141 -46 -3 -19 -10 -40 -15 -46 -8 -10
-3 -131 7 -165 2 -9 -3 -24 -12 -33 -15 -16 -18 -16 -40 5 -20 19 -24 32 -24
80 l0 57 -199 -3 -199 -4 -40 35 c-22 18 -43 34 -46 34 -8 0 5 -28 40 -90 40
-68 49 -123 34 -195 -11 -55 -11 -57 15 -83 15 -15 35 -43 45 -62 14 -28 60
-159 76 -217 2 -7 42 -40 91 -75 163 -118 213 -179 213 -262 0 -84 -85 -176
-163 -176 -47 0 -62 -22 -61 -93 1 -52 5 -70 26 -98 49 -65 71 -121 74 -188 3
-61 2 -65 -30 -97 -35 -35 -66 -43 -83 -21 -11 14 -30 84 -38 142 -37 262 -39
271 -82 320 -10 11 -30 26 -45 32 -32 15 -29 29 -32 -137 -2 -122 0 -115 -75
-255 -10 -19 -17 -63 -19 -122 l-4 -93 65 0 64 0 48 -242 c26 -134 52 -262 57
-285 l10 -43 794 0 794 0 78 78 c322 327 542 665 737 1131 55 132 129 366 151
474 24 124 36 188 40 222 3 22 7 50 10 63 21 102 25 598 5 757 -15 123 -18
140 -36 240 -20 107 -23 124 -29 143 -3 9 -7 28 -10 42 -9 57 -110 382 -125
405 -4 6 -13 28 -20 50 -53 155 -218 461 -358 662 -140 202 -392 481 -573 633
-170 143 -399 299 -570 388 -47 25 -94 50 -105 57 -80 49 -492 206 -605 230
-8 1 -35 8 -60 15 -25 7 -52 13 -60 15 -124 25 -234 46 -270 50 -58 7 -128 16
-160 21 -31 6 -517 14 -521 10z m161 -455 c146 -62 147 -275 2 -338 -18 -7
-70 -16 -115 -18 -137 -8 -231 -15 -257 -19 -14 -3 -46 -7 -72 -10 -132 -17
-416 -96 -525 -146 -24 -11 -45 -20 -47 -20 -12 0 -168 -78 -243 -121 -198
-114 -386 -262 -533 -416 -115 -121 -125 -133 -213 -250 -87 -116 -121 -138
-204 -137 -63 1 -119 35 -151 92 -57 102 -26 174 174 412 283 336 628 591
1039 767 201 87 498 170 670 188 33 4 62 8 66 10 3 3 57 7 120 11 63 3 115 7
117 9 8 7 151 -4 172 -14z m1478 -502 c98 -25 188 -107 221 -204 98 -292 -216
-544 -475 -380 -173 110 -201 351 -58 498 81 83 195 114 312 86z m-1027 -260
c77 -26 131 -109 124 -190 -15 -178 -236 -237 -339 -91 -30 42 -40 99 -28 159
6 34 91 120 123 126 46 8 86 7 120 -4z m1849 -516 c0 -82 2 -93 18 -94 9 0 51
-1 92 -1 l75 -1 0 -94 0 -94 -45 1 c-25 1 -66 1 -92 1 l-48 -1 0 -90 c0 -49
-3 -90 -7 -90 -16 -1 -149 -2 -164 -1 -15 1 -17 14 -15 91 l2 90 -93 0 -93 0
0 94 0 94 85 0 c47 -1 88 2 92 6 4 3 7 43 8 89 1 45 3 84 4 87 0 3 42 5 91 5
l90 0 0 -92z"/>
<path d="M5722 8309 c-40 -20 -72 -61 -72 -92 0 -43 97 -58 161 -25 38 19 69
56 69 81 0 52 -86 72 -158 36z"/>
</g>
</svg>
