<svg xmlns="http://www.w3.org/2000/svg" width="24" height="24" viewBox="0 0 24 24">
    <path fill="#2A3842" fill-rule="evenodd" d="M19 7.37a5.67 5.67 0 0 1-1.65.461 2.923 2.923 0 0 0 1.263-1.617 5.7 5.7 0 0 1-1.824.71A2.846 2.846 0 0 0 14.693 6c-1.587 0-2.872 1.309-2.872 2.923 0 .23.025.452.074.667-2.387-.122-4.504-1.286-5.92-3.055a2.952 2.952 0 0 0-.39 1.47c0 1.014.508 1.909 1.278 2.433a2.82 2.82 0 0 1-1.3-.366v.037c0 1.417.99 2.598 2.304 2.867a2.83 2.83 0 0 1-1.298.05c.366 1.162 1.427 2.007 2.683 2.03A5.7 5.7 0 0 1 5 16.267a8.028 8.028 0 0 0 4.403 1.313c5.283 0 8.172-4.455 8.172-8.318 0-.127-.003-.253-.008-.378A5.884 5.884 0 0 0 19 7.37"/>
</svg>
